<svg width="200" height="200" viewBox="0 0 200 200" fill="none" xmlns="http://www.w3.org/2000/svg">
<g clip-path="url(#clip0_14_7)">
<rect width="200" height="200" fill="#FF3030"/>
<path d="M-0.192 54L11.184 18.48H19.536L30.912 54H23.472L18.384 35.52C17.328 31.824 16.32 27.696 15.312 23.904H15.12C14.16 27.744 13.152 31.824 12.096 35.52L7.008 54H-0.192ZM6.864 44.88V39.408H23.76V44.88H6.864ZM35.118 54V18.48H46.83C54.126 18.48 59.694 20.64 59.694 27.264C59.694 30.528 57.918 33.84 54.894 34.944V35.136C58.686 36.048 61.518 38.784 61.518 43.536C61.518 50.688 55.566 54 47.79 54H35.118ZM42.222 32.928H46.35C50.862 32.928 52.782 31.152 52.782 28.272C52.782 25.152 50.718 23.952 46.446 23.952H42.222V32.928ZM42.222 48.528H47.166C51.966 48.528 54.606 46.8 54.606 43.152C54.606 39.696 52.062 38.208 47.166 38.208H42.222V48.528ZM82.2379 54.672C73.2619 54.672 66.0139 48.24 66.0139 36.384C66.0139 24.672 73.5019 17.856 82.5259 17.856C87.0379 17.856 90.6379 19.968 92.9419 22.368L89.1979 26.928C87.3739 25.152 85.3579 23.952 82.6219 23.952C77.2939 23.952 73.2619 28.56 73.2619 36.144C73.2619 43.92 76.8619 48.528 82.5259 48.528C85.5499 48.528 87.9499 47.088 89.8219 45.024L93.5659 49.488C90.6379 52.896 86.8459 54.672 82.2379 54.672ZM2.304 105.936H45.6V111.264H2.304V105.936ZM6.96 94.896H41.328V108.24H35.472V99.888H12.48V108.24H6.96V94.896ZM20.784 90.096H26.832V104.304C26.832 112.848 22.8 120.48 4.848 124.416C4.176 123.168 2.592 120.816 1.296 119.568C18.144 116.4 20.784 110.592 20.784 104.208V90.096ZM26.736 108.048C29.856 114.48 36.528 117.984 46.896 119.136C45.648 120.384 44.064 122.784 43.296 124.416C32.16 122.592 25.632 117.936 21.648 109.248L26.736 108.048ZM2.784 82.944H45.024V88.08H2.784V82.944ZM12.192 79.248H17.904V92.4H12.192V79.248ZM29.808 79.248H35.568V92.4H29.808V79.248ZM52.416 117.264C61.008 117.024 74.352 116.544 86.448 116.016L86.256 121.296C74.496 121.968 61.824 122.544 53.184 122.88L52.416 117.264ZM52.176 102.96H92.112V108.336H52.176V102.96ZM60.72 93.744H83.232V99.024H60.72V93.744ZM63.936 106.464L70.512 108.288C68.256 112.8 65.664 117.792 63.504 121.008L58.464 119.328C60.432 115.824 62.736 110.496 63.936 106.464ZM75.84 111.408L80.928 108.768C85.248 112.464 89.712 117.504 91.92 121.152L86.592 124.368C84.576 120.72 79.968 115.248 75.84 111.408ZM71.952 84.864C68.064 90.336 60.576 96.48 52.608 100.272C51.936 98.88 50.4 96.72 49.2 95.472C57.408 91.872 65.088 85.008 68.64 79.344H74.736C79.824 86.4 87.456 91.872 95.088 94.608C93.696 96.048 92.4 98.112 91.344 99.84C84.144 96.48 76.032 90.432 71.952 84.864ZM118.656 104.928H140.784V124.128H135.024V110.112H124.08V124.368H118.656V104.928ZM137.424 79.728L141.456 84.528C134.928 86.448 126.096 87.552 118.512 88.08C118.32 86.688 117.552 84.528 116.88 83.232C124.176 82.608 132.336 81.36 137.424 79.728ZM126.48 84.24H132.384V107.52H126.48V84.24ZM116.112 93.168H142.752V98.592H116.112V93.168ZM122.304 116.832H137.76V122.016H122.304V116.832ZM99.744 94.32H114.24V98.64H99.744V94.32ZM100.032 80.736H114.24V85.104H100.032V80.736ZM99.744 101.04H114.24V105.36H99.744V101.04ZM97.392 87.408H115.776V91.92H97.392V87.408ZM102.576 107.808H114.48V122.4H102.576V117.888H109.536V112.368H102.576V107.808ZM99.6 107.808H104.448V124.32H99.6V107.808ZM39.984 153.504C39.6 154.032 38.736 155.472 38.304 156.48C36.336 161.04 32.784 167.568 28.656 172.368C23.28 178.56 16.032 184.512 8.592 188.016L3.6 182.832C11.376 179.952 18.768 174.096 23.28 169.104C26.448 165.504 29.376 160.752 30.48 157.344C28.464 157.344 16.224 157.344 14.16 157.344C12.192 157.344 9.552 157.584 8.496 157.68V150.816C9.792 151.008 12.768 151.152 14.16 151.152C16.704 151.152 28.992 151.152 31.104 151.152C33.216 151.152 35.088 150.912 36.096 150.576L39.984 153.504ZM29.28 168.384C34.224 172.416 41.04 179.568 44.16 183.408L38.688 188.16C35.136 183.216 29.904 177.504 24.768 172.848L29.28 168.384ZM91.152 156.192C90.624 157.104 89.952 158.4 89.568 159.6C88.272 163.92 85.536 170.304 81.168 175.632C76.608 181.2 70.848 185.616 61.824 189.168L56.16 184.128C65.952 181.152 71.28 176.976 75.504 172.224C78.768 168.48 81.552 162.72 82.32 159.168H66.144L68.352 153.696C70.464 153.696 80.544 153.696 82.032 153.696C83.52 153.696 85.152 153.504 86.208 153.12L91.152 156.192ZM75.504 148.56C74.352 150.24 73.104 152.448 72.576 153.456C69.312 159.264 63.6 166.032 56.688 170.736L51.312 166.752C59.712 161.616 63.936 155.424 66.288 151.296C67.008 150.144 68.016 147.936 68.448 146.256L75.504 148.56ZM100.368 163.776C102.144 163.92 105.6 164.112 108.096 164.112C113.76 164.112 129.6 164.112 133.872 164.112C136.128 164.112 138.24 163.872 139.536 163.776V171.36C138.384 171.312 135.936 171.072 133.92 171.072C129.552 171.072 113.76 171.072 108.096 171.072C105.408 171.072 102.192 171.216 100.368 171.36V163.776ZM168.096 184.944C168.336 184.032 168.48 182.736 168.48 181.44C168.48 178.896 168.48 157.344 168.48 153.456C168.48 151.296 168.144 149.424 168.144 149.328H175.248C175.248 149.424 174.912 151.344 174.912 153.504C174.912 157.344 174.912 175.632 174.912 178.56C178.848 176.88 183.552 173.088 186.816 168.432L190.464 173.76C186.48 178.944 179.616 184.128 174.192 186.864C173.184 187.392 172.608 187.92 172.128 188.256L168.096 184.944ZM145.872 184.272C150.144 181.296 152.736 176.88 154.032 172.752C155.424 168.672 155.472 159.552 155.472 153.792C155.472 151.824 155.28 150.576 154.992 149.376H162.048C162.048 149.568 161.712 151.728 161.712 153.696C161.712 159.408 161.568 169.536 160.32 174.384C158.832 179.76 155.856 184.512 151.728 188.16L145.872 184.272Z" fill="white"/>
</g>
<defs>
<clipPath id="clip0_14_7">
<rect width="200" height="200" fill="white"/>
</clipPath>
</defs>
</svg>
